<svg width="520" height="100" viewBox="0 0 520 100" fill="none" xmlns="http://www.w3.org/2000/svg">
<g clip-path="url(#clip0_529_2)">
<path d="M44.7534 87.8575C44.0888 88.5928 42.9994 88.5928 42.3349 87.8629L27.2519 71.0641C26.5819 70.3288 26.6092 69.1522 27.3118 68.455L29.8992 65.8622C30.6019 65.1649 31.7403 65.1704 32.4266 65.884L42.2586 76.0482C42.9504 76.7618 44.067 76.7454 44.7316 76.0101L63.3824 55.5726C64.0524 54.8427 65.2017 54.7828 65.9425 55.4528L68.2303 57.2503C70.7251 59.7451 70.9212 60.0066 68.2303 62.6974L44.7534 87.8575Z" fill="#405087"/>
<path d="M29.9589 22.1221C27.2354 22.1221 27.2354 27.5692 27.2354 27.5692H32.6824C32.6824 27.5692 32.6824 22.1221 29.9589 22.1221Z" fill="#405087"/>
<path d="M54.4708 22.1222H43.5766C43.1082 16.6751 38.1296 11.228 29.9589 11.228C21.7883 11.228 16.8097 16.6751 16.3412 22.1222H5.44708C5.44708 22.1222 0 22.1222 0 27.5693C0 32.0086 0 76.593 0 82.0401C0 87.4871 5.44708 87.4871 5.44708 87.4871H36.1032L22.4855 73.9512C20.1978 71.4401 21.4452 68.2208 23.8473 65.8241L27.9326 61.7551C29.1146 60.5731 30.3511 60.4043 32.0179 60.4043C33.7011 60.4043 36.2939 61.924 37.465 63.1387L43.7019 69.9475L59.9179 52.4679C59.9179 52.4679 59.9179 33.0163 59.9179 27.5693C59.9179 22.1222 54.4708 22.1222 54.4708 22.1222ZM13.6177 54.8047H10.8942C10.8942 54.8047 8.17062 54.8047 8.17062 52.0811C8.17062 49.3576 10.8942 49.3576 10.8942 49.3576H13.6177C13.6177 49.3576 16.3412 49.3576 16.3412 52.0811C16.3412 54.8047 13.6177 54.8047 13.6177 54.8047ZM13.6177 43.9105H10.8942C10.8942 43.9105 8.17062 43.9105 8.17062 41.187C8.17062 38.4634 10.8942 38.4634 10.8942 38.4634H13.6177C13.6177 38.4634 16.3412 38.4634 16.3412 41.187C16.3412 43.9105 13.6177 43.9105 13.6177 43.9105ZM49.0237 54.8047H24.5119C24.5119 54.8047 21.7883 54.8047 21.7883 52.0811C21.7883 49.3576 24.5119 49.3576 24.5119 49.3576H49.0237C49.0237 49.3576 51.7473 49.3576 51.7473 52.0811C51.7473 54.8047 49.0237 54.8047 49.0237 54.8047ZM49.0237 43.9105H24.5119C24.5119 43.9105 21.7883 43.9105 21.7883 41.187C21.7883 38.4634 24.5119 38.4634 24.5119 38.4634H49.0237C49.0237 38.4634 51.7473 38.4634 51.7473 41.187C51.7473 43.9105 49.0237 43.9105 49.0237 43.9105ZM5.44708 33.0163C5.44708 33.0163 5.44708 27.5693 10.8942 27.5693C16.3412 27.5693 21.7883 27.5693 21.7883 27.5693C21.7883 27.5693 21.7883 17.0128 29.9589 17.0128C38.1296 17.0128 38.2766 27.5693 38.1296 27.5693C38.1296 27.5693 43.5766 27.5693 49.0237 27.5693C54.4708 27.5693 54.4708 33.0163 54.4708 33.0163H5.44708Z" fill="#405087"/>
<path d="M131.846 4.2592H134.754L132.252 13.5213H129.277C129.886 8.4508 128.804 7.63952 126.37 7.63952H121.3V41.6455C121.3 43.3357 122.584 43.8765 126.303 44.147V46.716C119.88 46.5132 113.187 46.5132 106.764 46.716V44.147C110.483 43.8765 111.767 43.3357 111.767 41.6455V7.63952H106.832C104.398 7.63952 103.587 8.51841 101.221 13.5213H98.2461L100.612 4.2592H103.519C105.683 4.73245 107.035 4.73245 110.686 4.73245H124.748C128.331 4.73245 129.683 4.73245 131.846 4.2592ZM163.351 38.2652C163.351 40.7667 164.974 41.3075 167.61 40.8343V43.6737C161.052 45.2963 157.943 47.5949 156.252 47.5949C154.765 47.5949 154.089 46.7836 154.224 45.0935L154.63 40.0906C153.21 43.6061 150.303 47.5949 144.218 47.5949C139.08 47.5949 134.077 45.0259 134.077 38.9413C134.077 32.4511 138.81 28.4623 154.224 25.2848L154.157 21.1608C154.089 16.2931 153.413 14.603 150.979 14.603C141.852 14.603 147.328 25.0144 139.959 25.0144C137.323 25.0144 136.106 23.527 136.106 21.4312C136.106 16.3608 142.799 12.2368 151.452 12.2368C158.889 12.2368 163.351 13.9945 163.351 22.0397V38.2652ZM147.666 43.6061C151.588 43.6061 153.683 38.468 154.224 36.1018V27.651C144.218 29.7468 143.34 35.3581 143.34 38.1976C143.34 41.3751 144.962 43.6061 147.666 43.6061ZM196.275 37.3187C196.275 43.3357 190.326 47.5949 184.917 47.5949C180.253 47.5949 177.413 45.1611 175.655 45.1611C174.844 45.1611 174.371 45.6343 174.303 46.6484H171.667L170.855 37.2511H172.275C173.289 37.2511 173.965 37.4539 174.303 38.468C175.453 42.1188 180.185 45.0935 183.836 45.0935C186.743 45.0935 188.568 43.2005 188.568 40.6314C188.568 37.2511 185.661 35.7638 181.537 33.8032C177.008 31.6398 170.653 28.5299 170.653 21.9721C170.653 16.2255 175.453 12.3044 181.47 12.3044C186.134 12.3044 187.622 14.1973 189.312 14.1973C190.258 14.1973 190.732 13.6565 190.934 12.8452H193.571L194.18 22.1073H192.827C191.813 22.1073 191.137 21.8369 190.732 20.8228C189.109 16.9016 185.932 14.7382 182.822 14.7382C180.05 14.7382 178.089 16.6312 178.089 19.2002C178.089 22.1749 180.523 23.6622 184.106 25.2848C188.23 27.1778 196.275 30.3553 196.275 37.3187ZM227.577 39.4145C230.417 43.1329 233.053 44.9583 235.69 45.2287L233.391 47.7977C229.132 47.7977 224.4 47.2569 220.208 41.916L212.298 31.9102V41.6455C212.298 43.3357 214.123 43.9442 216.557 44.147V46.716C210.676 46.5132 204.929 46.4456 199.047 46.716V44.147C201.346 43.8765 203.171 43.3357 203.171 41.6455V9.60011C203.171 7.09867 201.549 6.55782 198.98 6.96346V4.39442C205.673 3.04229 208.647 0 210.473 0C211.825 0 212.298 0.743671 212.298 2.29862V27.9891C216.219 25.082 219.194 21.7017 221.425 18.4565C222.371 17.0368 221.29 15.8875 218.518 15.6171V12.8452C223.521 13.048 228.456 13.048 233.459 12.8452V15.6171C230.822 15.8875 229.47 16.6988 227.239 18.5918L217.909 26.6369L227.577 39.4145ZM299.646 41.6455C299.646 43.3357 300.93 43.8765 304.648 44.147V46.716C298.226 46.5132 291.533 46.5132 285.11 46.716V44.147C288.829 43.8765 290.113 43.3357 290.113 41.6455V13.048L277.268 46.716L262.462 13.048V41.6455C262.462 43.3357 265.504 43.8089 269.899 44.147V46.716C263.949 46.5132 257.932 46.5132 252.253 46.716V44.147C256.377 43.8089 259.352 43.3357 259.352 41.6455V10.7494C259.352 8.99165 257.054 7.57192 253.335 7.30149V4.73245C258.203 4.93527 263.138 4.93527 268.006 4.73245L279.499 31.437L289.707 4.73245C294.845 4.93527 299.51 4.93527 304.648 4.73245V7.30149C300.93 7.57192 299.646 8.04516 299.646 9.73532V41.6455ZM336.626 38.2652C336.626 40.7667 338.249 41.3075 340.885 40.8343V43.6737C334.328 45.2963 331.218 47.5949 329.528 47.5949C328.04 47.5949 327.364 46.7836 327.499 45.0935L327.905 40.0906C326.485 43.6061 323.578 47.5949 317.494 47.5949C312.356 47.5949 307.353 45.0259 307.353 38.9413C307.353 32.4511 312.085 28.4623 327.499 25.2848L327.432 21.1608C327.364 16.2931 326.688 14.603 324.254 14.603C315.127 14.603 320.604 25.0144 313.234 25.0144C310.598 25.0144 309.381 23.527 309.381 21.4312C309.381 16.3608 316.074 12.2368 324.728 12.2368C332.164 12.2368 336.626 13.9945 336.626 22.0397V38.2652ZM320.942 43.6061C324.863 43.6061 326.959 38.468 327.499 36.1018V27.651C317.494 29.7468 316.615 35.3581 316.615 38.1976C316.615 41.3751 318.237 43.6061 320.942 43.6061ZM377.596 41.6455C377.596 43.3357 379.421 43.8765 381.855 44.147V46.716C375.973 46.5132 370.159 46.5132 364.277 46.716V44.147C366.643 43.9442 368.469 43.3357 368.469 41.6455V24.3383C368.469 19.5382 368.063 16.2931 364.683 16.2931C360.424 16.2931 356.908 21.8369 356.232 23.3918V41.6455C356.232 43.3357 358.057 43.9442 360.491 44.147V46.716C354.61 46.5132 348.795 46.5132 342.914 46.716V44.147C345.28 43.8765 347.105 43.3357 347.105 41.6455V21.5664C347.105 19.065 345.483 18.5242 342.914 18.9298V16.3608C349.607 15.0086 352.581 11.9663 354.339 11.9663C355.759 11.9663 356.435 12.9128 356.232 14.5354L355.624 19.9439C357.179 17.5777 361.032 12.2368 367.455 12.2368C372.728 12.2368 377.596 14.4678 377.596 24.0003V41.6455ZM413.833 38.2652C413.833 40.7667 415.455 41.3075 418.092 40.8343V43.6737C411.534 45.2963 408.424 47.5949 406.734 47.5949C405.247 47.5949 404.571 46.7836 404.706 45.0935L405.112 40.0906C403.692 43.6061 400.785 47.5949 394.7 47.5949C389.562 47.5949 384.559 45.0259 384.559 38.9413C384.559 32.4511 389.292 28.4623 404.706 25.2848L404.638 21.1608C404.571 16.2931 403.895 14.603 401.461 14.603C392.334 14.603 397.81 25.0144 390.441 25.0144C387.804 25.0144 386.587 23.527 386.587 21.4312C386.587 16.3608 393.28 12.2368 401.934 12.2368C409.371 12.2368 413.833 13.9945 413.833 22.0397V38.2652ZM398.148 43.6061C402.069 43.6061 404.165 38.468 404.706 36.1018V27.651C394.7 29.7468 393.821 35.3581 393.821 38.1976C393.821 41.3751 395.444 43.6061 398.148 43.6061ZM452.166 12.372C454.599 12.372 455.478 13.5213 455.478 15.8875C455.478 17.4425 455.411 19.2678 453.518 19.2002C452.436 19.1326 451.692 18.7946 450.611 18.7946C449.732 18.7946 449.664 19.403 449.867 20.0115C450.273 21.0932 450.881 22.4453 450.881 24.5411C450.881 31.8426 444.932 36.3722 436.481 36.3722C432.965 36.3722 430.802 35.4258 429.247 35.4258C428.098 35.4258 427.489 36.0342 427.489 36.9131C427.489 38.2652 428.909 39.0089 432.425 39.5497L439.929 40.6314C448.853 41.916 453.45 44.0118 453.45 50.3668C453.45 56.857 445.946 61.3866 436.481 61.3866C427.557 61.3866 421.067 58.2091 421.067 52.395C421.067 49.1499 422.96 46.9864 426.137 46.9864C428.098 46.9864 429.855 47.8653 429.855 49.8935C429.855 51.9893 429.179 52.2597 429.179 54.4232C429.179 56.5866 431.546 58.8852 436.684 58.8852C441.889 58.8852 445.878 56.5866 445.878 51.7189C445.878 49.4879 444.526 48.271 440.875 47.5949L428.03 45.2287C423.162 44.3498 421.134 42.0512 421.134 39.0765C421.134 36.3046 423.298 33.8708 427.557 33.8032C424.379 32.1806 422.013 28.5975 422.013 24.5411C422.013 17.3072 427.76 12.3044 436.346 12.3044C441.889 12.3044 444.729 14.3326 447.095 16.5636C447.839 14.0621 449.394 12.372 452.166 12.372ZM436.413 33.6004C440.672 33.6004 441.822 28.9355 441.822 24.5411C441.822 20.3495 440.74 15.0086 436.413 15.0086C432.086 15.0086 431.005 20.3495 431.005 24.5411C431.005 28.9355 432.154 33.6004 436.413 33.6004ZM485.225 39.0765C486.104 39.0765 486.307 39.9554 485.698 41.0371C483.535 44.8906 479.884 47.3921 474.138 47.3921C464.808 47.3921 457.168 41.2399 457.168 29.6792C457.168 18.3213 465.146 12.3044 473.191 12.3044C481.642 12.3044 487.591 18.2537 487.591 26.0961C487.591 29.0031 486.442 30.8961 483.4 30.8961H466.498C466.633 38.2652 468.864 44.6878 475.287 44.6878C478.87 44.6878 481.169 43.2005 482.926 40.0906C483.332 39.4145 483.535 39.0765 484.346 39.0765H485.225ZM478.938 27.7862C478.938 19.8087 477.383 15.0086 473.124 15.0086C468.729 15.0086 466.566 19.8087 466.498 27.7862H478.938ZM513.62 12.1692C516.932 12.1692 519.299 14.0621 519.299 16.7664C519.299 19.6059 517.068 20.958 515.242 20.958C512.2 20.958 511.659 18.5918 509.225 18.5918C505.169 18.5918 504.087 23.527 503.614 25.2848V41.6455C503.614 43.3357 505.439 43.8765 507.873 44.147V46.716C502.059 46.5132 496.177 46.5132 490.363 46.716V44.147C492.662 43.8765 494.487 43.3357 494.487 41.6455V21.634C494.487 19.1326 492.865 18.5918 490.296 18.9974V16.4284C496.989 15.0762 499.963 11.9663 501.721 11.9663C503.141 11.9663 503.817 12.9128 503.614 14.5354L502.6 21.4988C505.034 15.2114 508.414 12.1692 513.62 12.1692Z" fill="#405087"/>
<path d="M356.169 76.3635C358.358 76.3635 360.086 76.9056 361.35 77.9896C362.615 79.0737 363.248 80.6361 363.248 82.6767C363.248 84.6536 362.62 86.2 361.366 87.316C360.112 88.4319 358.38 88.9899 356.169 88.9899H351.131V98.938H348.07V76.3635H356.169ZM355.276 86.3116C356.871 86.3116 358.056 86.0193 358.831 85.4347C359.607 84.8502 359.995 83.9309 359.995 82.6767C359.995 80.2534 358.422 79.0418 355.276 79.0418H351.131V86.3116L355.276 86.3116ZM380.854 76.3635C383.065 76.3635 384.798 76.9162 386.052 78.0215C387.306 79.1269 387.933 80.6787 387.933 82.6767C387.933 84.1859 387.417 85.5038 386.386 86.6305C385.355 87.7571 384.032 88.4267 382.417 88.6392H382.385L388.794 98.938H384.968L379.228 88.9899H375.817V98.938H372.756V76.3635H380.854ZM379.962 86.3116C381.556 86.3116 382.741 86.0193 383.517 85.4347C384.293 84.8502 384.681 83.9309 384.681 82.6767C384.681 80.2534 383.108 79.0418 379.962 79.0418H375.817V86.3116L379.962 86.3116ZM408.377 75.7896C411.736 75.7896 414.537 76.9055 416.779 79.1375C419.022 81.3695 420.143 84.2072 420.143 87.6508C420.143 89.8401 419.643 91.8436 418.644 93.6611C417.645 95.4785 416.237 96.9079 414.42 97.9496C412.602 98.9913 410.588 99.512 408.377 99.512C406.188 99.512 404.19 98.9965 402.383 97.9655C400.576 96.9346 399.163 95.5104 398.142 93.693C397.122 91.8755 396.612 89.8614 396.612 87.6508C396.612 84.2923 397.712 81.4756 399.912 79.2013C402.112 76.9269 404.934 75.7896 408.377 75.7896ZM399.864 87.6508C399.864 90.2016 400.661 92.3379 402.256 94.0596C403.85 95.7814 405.89 96.6423 408.377 96.6423C410.822 96.6423 412.852 95.792 414.467 94.0915C416.083 92.391 416.891 90.244 416.891 87.6508C416.891 85.0788 416.094 82.9372 414.499 81.226C412.905 79.5147 410.854 78.6592 408.346 78.6592C405.922 78.6592 403.903 79.5095 402.287 81.21C400.672 82.9105 399.864 85.0576 399.864 87.6508ZM440.428 76.3635V92.6248C440.428 94.7504 439.812 96.4296 438.579 97.6626C437.346 98.8956 435.762 99.512 433.828 99.512C432.17 99.512 430.81 99.0868 429.747 98.2366C428.684 97.3863 428.004 96.164 427.706 94.5698L430.703 93.9002C430.873 94.7505 431.224 95.4201 431.755 95.909C432.287 96.3979 432.978 96.6423 433.828 96.6423C435.018 96.6423 435.906 96.2438 436.49 95.4466C437.075 94.6495 437.367 93.3901 437.367 91.6683V76.3635H440.428ZM466.038 76.3635V79.2332H454.528V85.9609H465.241V88.8305H454.528V96.0684H466.612V98.938H451.467V76.3635H466.038ZM487.089 75.7896C488.683 75.7896 490.176 76.0871 491.568 76.6823C492.961 77.2775 494.103 78.149 494.996 79.2969L492.445 81.2419C491.064 79.5201 489.246 78.6592 486.993 78.6592C484.548 78.6592 482.534 79.5307 480.951 81.2738C479.367 83.0168 478.575 85.2061 478.575 87.842C478.575 90.3928 479.356 92.4972 480.919 94.1553C482.481 95.8133 484.506 96.6423 486.993 96.6423C489.48 96.6423 491.446 95.6326 492.892 93.6132L495.474 95.5582C494.581 96.7486 493.391 97.7052 491.903 98.4278C490.415 99.1505 488.757 99.5119 486.929 99.5119C484.761 99.5119 482.795 98.9858 481.03 97.9336C479.266 96.8814 477.874 95.4359 476.853 93.5973C475.833 91.7586 475.323 89.8294 475.323 87.8102C475.323 84.3242 476.418 81.4491 478.607 79.1853C480.797 76.9215 483.624 75.7896 487.089 75.7896ZM520 76.3635V79.2332H512.73V98.938H509.669V79.2332H502.4V76.3635H520Z" fill="#405087" fill-opacity="0.8"/>
</g>
<defs>
<clipPath id="clip0_529_2">
<rect width="520" height="99.5119" fill="white"/>
</clipPath>
</defs>
</svg>
